<svg xmlns="http://www.w3.org/2000/svg" xmlns:xlink="http://www.w3.org/1999/xlink" width="870" height="342.23"><rect width="870" height="342.23" rx="5" ry="5" class="a"/><svg y="0%" x="0%"><circle cx="20" cy="20" r="6" fill="#ff5f58"/><circle cx="40" cy="20" r="6" fill="#ffbd2e"/><circle cx="60" cy="20" r="6" fill="#18c132"/></svg><svg height="282.23" viewBox="0 0 83 28.223" width="830" x="15" xmlns="http://www.w3.org/2000/svg" xmlns:xlink="http://www.w3.org/1999/xlink" y="50"><style>@keyframes p{0%{transform:translateX(0)}.7%{transform:translateX(-83px)}6.06%{transform:translateX(-166px)}7.11%{transform:translateX(-249px)}7.79%{transform:translateX(-332px)}8.58%{transform:translateX(-415px)}9.36%{transform:translateX(-498px)}10.27%{transform:translateX(-581px)}10.95%{transform:translateX(-664px)}11.66%{transform:translateX(-747px)}12.48%{transform:translateX(-830px)}15.49%{transform:translateX(-913px)}17.11%{transform:translateX(-996px)}18.09%{transform:translateX(-1079px)}20.32%{transform:translateX(-1162px)}21.03%{transform:translateX(-1245px)}22.03%{transform:translateX(-1328px)}23.48%{transform:translateX(-1411px)}26.23%{transform:translateX(-1494px)}36.09%{transform:translateX(-1577px)}42.55%{transform:translateX(-1660px)}42.56%{transform:translateX(-1743px)}53.37%{transform:translateX(-1826px)}56.83%{transform:translateX(-1909px)}61.22%{transform:translateX(-2075px)}67.37%{transform:translateX(-2158px)}71.56%{transform:translateX(-2241px)}71.57%{transform:translateX(-2324px)}82.77%{transform:translateX(-2407px)}86.59%{transform:translateX(-2490px)}88.57%{transform:translateX(-2573px)}88.58%{transform:translateX(-2656px)}88.86%{transform:translateX(-2739px)}to{transform:translateX(-2822px)}}.a{fill:#282d35}.f{fill:#71bef2;font-weight:700;white-space:pre}.g,.h,.j,.k,.l{fill:#b9c0cb;white-space:pre}.h,.j,.k,.l{fill:#66c2cd}.j,.k,.l{fill:#71bef2}.k,.l{fill:#e88388}.l{fill:#dbab79}</style><g font-family="Monaco,Consolas,Menlo,'Bitstream Vera Sans Mono','Powerline Symbols',monospace" font-size="1.67"><defs><symbol id="1"><text y="1.67" class="f">example</text><text x="8.016" y="1.67" class="g">$</text><text x="10.02" y="1.67" class="g">npx</text></symbol><symbol id="2"><text y="1.67" class="f">example</text><text x="8.016" y="1.67" class="g">$</text><text x="10.02" y="1.67" class="g">npx</text><text x="14.028" y="1.67" class="g">kirby-deploy</text></symbol><symbol id="3"><text y="1.67" class="g">🚀</text><text x="3.006" y="1.67" class="g">Deploy</text><text x="10.02" y="1.67" class="h">main</text><text x="15.03" y="1.67" class="g">to</text><text x="18.036" y="1.67" style="white-space:pre" fill="#d290e4">ftp.example.com/</text></symbol><symbol id="4"><text y="1.67" class="h">ℹ</text><text x="2.004" y="1.67" class="g">Skipping</text><text x="11.022" y="1.67" class="g">vendor</text></symbol><symbol id="5"><text y="1.67" class="g">Review</text><text x="7.014" y="1.67" class="g">changes...</text></symbol><symbol id="6"><text y="1.67" class="j">→</text><text x="2.004" y="1.67" class="j">site/templates/default.php</text></symbol><symbol id="7"><text y="1.67" class="k">⨯</text><text x="2.004" y="1.67" class="k">site/snippets/old.php</text></symbol><symbol id="8"><text y="1.67" class="g">Apply</text><text x="6.012" y="1.67" class="g">changes</text><text x="14.028" y="1.67" class="g">to</text><text x="17.034" y="1.67" class="g">remote?</text><text x="25.05" y="1.67" class="l">(y/n)</text><text x="31.062" y="1.67" class="g">y</text></symbol><symbol id="9"><text y="1.67" class="g">Apply</text><text x="6.012" y="1.67" class="g">changes...</text></symbol><symbol id="10"><text y="1.67" style="white-space:pre" fill="#a8cc8c">✔</text><text x="2.004" y="1.67" class="g">All</text><text x="6.012" y="1.67" class="g">done!</text></symbol><symbol id="11"><text y="1.67" class="f">~/dev/kirby-deploy/example</text><text x="27.054" y="1.67" class="g">$</text></symbol><symbol id="a"><path fill="transparent" d="M0 0h83v14H0z"/></symbol><symbol id="b"><path fill="#6f7683" d="M0 0h1.102v2.171H0z"/></symbol></defs><path class="a" d="M0 0h83v28.223H0z"/><g style="animation-duration:18.298764s;animation-iteration-count:infinite;animation-name:p;animation-timing-function:steps(1,end)"><svg width="2905"><svg><use xlink:href="#a"/><use xlink:href="#b" x="-.004"/></svg><svg x="83"><use xlink:href="#a"/><use xlink:href="#b" x="9.996"/><text y="1.67" class="f">example</text><text x="8.016" y="1.67" class="g">$</text></svg><svg x="166"><use xlink:href="#a"/><use xlink:href="#b" x="10.996"/><text y="1.67" class="f">example</text><text x="8.016" y="1.67" class="g">$</text><text x="10.02" y="1.67" class="g">n</text></svg><svg x="249"><use xlink:href="#a"/><use xlink:href="#b" x="11.996"/><text y="1.67" class="f">example</text><text x="8.016" y="1.67" class="g">$</text><text x="10.02" y="1.67" class="g">np</text></svg><svg x="332"><use xlink:href="#a"/><use xlink:href="#b" x="12.996"/><use xlink:href="#1"/></svg><svg x="415"><use xlink:href="#a"/><use xlink:href="#b" x="13.996"/><use xlink:href="#1"/></svg><svg x="498"><use xlink:href="#a"/><use xlink:href="#b" x="14.996"/><text y="1.67" class="f">example</text><text x="8.016" y="1.67" class="g">$</text><text x="10.02" y="1.67" class="g">npx</text><text x="14.028" y="1.67" class="g">k</text></svg><svg x="581"><use xlink:href="#a"/><use xlink:href="#b" x="15.996"/><text y="1.67" class="f">example</text><text x="8.016" y="1.67" class="g">$</text><text x="10.02" y="1.67" class="g">npx</text><text x="14.028" y="1.67" class="g">ki</text></svg><svg x="664"><use xlink:href="#a"/><use xlink:href="#b" x="16.996"/><text y="1.67" class="f">example</text><text x="8.016" y="1.67" class="g">$</text><text x="10.02" y="1.67" class="g">npx</text><text x="14.028" y="1.67" class="g">kir</text></svg><svg x="747"><use xlink:href="#a"/><use xlink:href="#b" x="17.996"/><text y="1.67" class="f">example</text><text x="8.016" y="1.67" class="g">$</text><text x="10.02" y="1.67" class="g">npx</text><text x="14.028" y="1.67" class="g">kirb</text></svg><svg x="830"><use xlink:href="#a"/><use xlink:href="#b" x="18.996"/><text y="1.67" class="f">example</text><text x="8.016" y="1.67" class="g">$</text><text x="10.02" y="1.67" class="g">npx</text><text x="14.028" y="1.67" class="g">kirby</text></svg><svg x="913"><use xlink:href="#a"/><use xlink:href="#b" x="19.996"/><text y="1.67" class="f">example</text><text x="8.016" y="1.67" class="g">$</text><text x="10.02" y="1.67" class="g">npx</text><text x="14.028" y="1.67" class="g">kirby-</text></svg><svg x="996"><use xlink:href="#a"/><use xlink:href="#b" x="20.996"/><text y="1.67" class="f">example</text><text x="8.016" y="1.67" class="g">$</text><text x="10.02" y="1.67" class="g">npx</text><text x="14.028" y="1.67" class="g">kirby-d</text></svg><svg x="1079"><use xlink:href="#a"/><use xlink:href="#b" x="21.996"/><text y="1.67" class="f">example</text><text x="8.016" y="1.67" class="g">$</text><text x="10.02" y="1.67" class="g">npx</text><text x="14.028" y="1.67" class="g">kirby-de</text></svg><svg x="1162"><use xlink:href="#a"/><use xlink:href="#b" x="22.996"/><text y="1.67" class="f">example</text><text x="8.016" y="1.67" class="g">$</text><text x="10.02" y="1.67" class="g">npx</text><text x="14.028" y="1.67" class="g">kirby-dep</text></svg><svg x="1245"><use xlink:href="#a"/><use xlink:href="#b" x="23.996"/><text y="1.67" class="f">example</text><text x="8.016" y="1.67" class="g">$</text><text x="10.02" y="1.67" class="g">npx</text><text x="14.028" y="1.67" class="g">kirby-depl</text></svg><svg x="1328"><use xlink:href="#a"/><use xlink:href="#b" x="24.996"/><text y="1.67" class="f">example</text><text x="8.016" y="1.67" class="g">$</text><text x="10.02" y="1.67" class="g">npx</text><text x="14.028" y="1.67" class="g">kirby-deplo</text></svg><svg x="1411"><use xlink:href="#a"/><use xlink:href="#b" x="25.996"/><use xlink:href="#2"/></svg><svg x="1494"><use xlink:href="#a"/><use xlink:href="#b" x="-.004" y="2.146"/><use xlink:href="#2"/></svg><svg x="1577"><use xlink:href="#a"/><use xlink:href="#b" x="-.004" y="6.488"/><use xlink:href="#2"/><use xlink:href="#3" y="2.171"/></svg><svg x="1660"><use xlink:href="#a"/><use xlink:href="#b" x="-.004" y="10.83"/><use xlink:href="#2"/><use xlink:href="#3" y="2.171"/><use xlink:href="#4" y="6.513"/></svg><svg x="1743"><use xlink:href="#a"/><use xlink:href="#b" x="-.004" y="15.172"/><use xlink:href="#2"/><use xlink:href="#3" y="2.171"/><use xlink:href="#4" y="6.513"/><use xlink:href="#5" y="10.855"/></svg><svg x="1826"><use xlink:href="#a"/><use xlink:href="#b" x="-.004" y="17.343"/><use xlink:href="#2"/><use xlink:href="#3" y="2.171"/><use xlink:href="#4" y="6.513"/><use xlink:href="#5" y="10.855"/><use xlink:href="#6" y="15.197"/></svg><svg x="1909"><use xlink:href="#a"/><use xlink:href="#b" x="-.004" y="19.514"/><use xlink:href="#2"/><use xlink:href="#3" y="2.171"/><use xlink:href="#4" y="6.513"/><use xlink:href="#5" y="10.855"/><use xlink:href="#6" y="15.197"/><use xlink:href="#7" y="17.368"/></svg><svg x="1992"><use xlink:href="#a"/><use xlink:href="#b" x="-.004" y="19.514"/><use xlink:href="#2"/><use xlink:href="#3" y="2.171"/><use xlink:href="#4" y="6.513"/><use xlink:href="#5" y="10.855"/><use xlink:href="#6" y="15.197"/><use xlink:href="#7" y="17.368"/></svg><svg x="2075"><use xlink:href="#a"/><use xlink:href="#b" x="30.996" y="21.685"/><use xlink:href="#2"/><use xlink:href="#3" y="2.171"/><use xlink:href="#4" y="6.513"/><use xlink:href="#5" y="10.855"/><use xlink:href="#6" y="15.197"/><use xlink:href="#7" y="17.368"/><text y="23.38" class="g">Apply</text><text x="6.012" y="23.38" class="g">changes</text><text x="14.028" y="23.38" class="g">to</text><text x="17.034" y="23.38" class="g">remote?</text><text x="25.05" y="23.38" class="l">(y/n)</text></svg><svg x="2158"><use xlink:href="#a"/><use xlink:href="#b" x="31.996" y="21.685"/><use xlink:href="#2"/><use xlink:href="#3" y="2.171"/><use xlink:href="#4" y="6.513"/><use xlink:href="#5" y="10.855"/><use xlink:href="#6" y="15.197"/><use xlink:href="#7" y="17.368"/><use xlink:href="#8" y="21.71"/></svg><svg x="2241"><use xlink:href="#a"/><use xlink:href="#b" x="-.004" y="23.856"/><use xlink:href="#2"/><use xlink:href="#3" y="2.171"/><use xlink:href="#4" y="6.513"/><use xlink:href="#5" y="10.855"/><use xlink:href="#6" y="15.197"/><use xlink:href="#7" y="17.368"/><use xlink:href="#8" y="21.71"/></svg><svg x="2324"><use xlink:href="#a"/><use xlink:href="#b" x="-.004" y="28.198"/><use xlink:href="#3"/><use xlink:href="#4" y="4.342"/><use xlink:href="#5" y="8.684"/><use xlink:href="#6" y="13.026"/><use xlink:href="#7" y="15.197"/><use xlink:href="#8" y="19.539"/><use xlink:href="#9" y="23.881"/></svg><svg x="2407"><use xlink:href="#a"/><use xlink:href="#b" x="-.004" y="28.198"/><use xlink:href="#4" y="2.171"/><use xlink:href="#5" y="6.513"/><use xlink:href="#6" y="10.855"/><use xlink:href="#7" y="13.026"/><use xlink:href="#8" y="17.368"/><use xlink:href="#9" y="21.71"/><use xlink:href="#6" y="26.052"/></svg><svg x="2490"><use xlink:href="#a"/><use xlink:href="#b" x="-.004" y="28.198"/><use xlink:href="#4"/><use xlink:href="#5" y="4.342"/><use xlink:href="#6" y="8.684"/><use xlink:href="#7" y="10.855"/><use xlink:href="#8" y="15.197"/><use xlink:href="#9" y="19.539"/><use xlink:href="#6" y="23.881"/><use xlink:href="#7" y="26.052"/></svg><svg x="2573"><use xlink:href="#a"/><use xlink:href="#b" x="-.004" y="28.198"/><use xlink:href="#5" y="2.171"/><use xlink:href="#6" y="6.513"/><use xlink:href="#7" y="8.684"/><use xlink:href="#8" y="13.026"/><use xlink:href="#9" y="17.368"/><use xlink:href="#6" y="21.71"/><use xlink:href="#7" y="23.881"/></svg><svg x="2656"><use xlink:href="#a"/><use xlink:href="#b" x="-.004" y="28.198"/><use xlink:href="#5"/><use xlink:href="#6" y="4.342"/><use xlink:href="#7" y="6.513"/><use xlink:href="#8" y="10.855"/><use xlink:href="#9" y="15.197"/><use xlink:href="#6" y="19.539"/><use xlink:href="#7" y="21.71"/><use xlink:href="#10" y="26.052"/></svg><svg x="2739"><use xlink:href="#a"/><use xlink:href="#b" x="28.996" y="28.198"/><use xlink:href="#5"/><use xlink:href="#6" y="4.342"/><use xlink:href="#7" y="6.513"/><use xlink:href="#8" y="10.855"/><use xlink:href="#9" y="15.197"/><use xlink:href="#6" y="19.539"/><use xlink:href="#7" y="21.71"/><use xlink:href="#10" y="26.052"/><use xlink:href="#11" y="28.223"/></svg><svg x="2822"><use xlink:href="#a"/><use xlink:href="#b" x="28.996" y="28.198"/><use xlink:href="#5"/><use xlink:href="#6" y="4.342"/><use xlink:href="#7" y="6.513"/><use xlink:href="#8" y="10.855"/><use xlink:href="#9" y="15.197"/><use xlink:href="#6" y="19.539"/><use xlink:href="#7" y="21.71"/><use xlink:href="#10" y="26.052"/><use xlink:href="#11" y="28.223"/></svg></svg></g></g></svg></svg>