<?xml version="1.0" encoding="UTF-8" standalone="no"?><!DOCTYPE svg PUBLIC "-//W3C//DTD SVG 1.1//EN" "http://www.w3.org/Graphics/SVG/1.1/DTD/svg11.dtd"><svg width="100%" height="100%" viewBox="0 0 592 592" version="1.1" xmlns="http://www.w3.org/2000/svg" xmlns:xlink="http://www.w3.org/1999/xlink" xml:space="preserve" xmlns:serif="http://www.serif.com/" style="fill-rule:evenodd;clip-rule:evenodd;stroke-linejoin:round;stroke-miterlimit:2;"><rect id="Artboard2" x="0" y="0" width="592" height="592" style="fill:none;"/><g><path d="M541.296,50.529c-13.88,-13.881 -39.574,-14.615 -55.962,-6.218c-13.372,4.592 -27.46,9.77 -41.827,15.577l0.154,0.154c-37.748,16.034 -94.202,44.538 -139.385,86.486c-31.719,29.448 -49.893,52.118 -62.065,72.765l136.69,122.902c23.578,-14.045 47.234,-31.732 71.935,-56.434c35.034,-35.034 63.984,-96.13 80.805,-137.134l0.122,0.123c5.877,-14.517 11.113,-28.753 15.751,-42.258c8.397,-16.389 10.844,-38.902 -6.218,-55.963Z" style="fill:#ca0b4a;fill-rule:nonzero;"/><path d="M489.465,212.618l-122.765,-122.765c-46.606,19.796 -53.215,14.399 -109,66.189c-39.161,36.357 -24.221,15.353 -111.983,54.483l-95.871,35.289c-12.395,4.563 -15.884,20.438 -6.545,29.777c67.177,67.177 205.065,205.065 272.242,272.243c9.339,9.338 25.214,5.85 29.777,-6.545l39.871,-108.315c29.109,-17.34 22.961,-74.532 53.458,-105.029c43.254,-43.254 30.049,-64.703 50.816,-115.327Z" style="fill:#ca0b4a;fill-rule:nonzero;"/><path d="M465.789,187.711c0,32.478 -26.33,58.808 -58.808,58.808c-32.48,0 -58.809,-26.33 -58.809,-58.808c0,-32.479 26.329,-58.809 58.809,-58.809c32.478,0 58.808,26.33 58.808,58.809Z" style="fill:#9b9b9b;fill-rule:nonzero;"/><path d="M447.694,187.711c0,22.485 -18.228,40.713 -40.713,40.713c-22.487,0 -40.714,-18.228 -40.714,-40.713c0,-22.485 18.227,-40.714 40.714,-40.714c22.485,0 40.713,18.229 40.713,40.714Z" style="fill:#83cbff;fill-rule:nonzero;"/><path d="M66.316,519.948c-12.795,-12.795 -7.662,-101.527 37.575,-119.622c-0,0 45.237,-18.095 74.388,10.866c29.151,28.963 16.086,61.512 16.086,61.512c-12.794,38.385 -67.266,53.644 -73.664,47.246c-3.533,-3.532 2.829,-9.965 0,-12.795c-2.829,-2.828 -7.197,0.4 -19.192,6.398c-8.53,4.265 -30.075,11.514 -35.193,6.395Z" style="fill:#ff8257;fill-rule:nonzero;"/><path d="M132.13,365.235c10.6,-10.6 27.785,-10.6 38.385,-0l63.974,63.974c10.6,10.6 10.6,27.785 0,38.385c-10.598,10.6 -27.784,10.6 -38.384,-0l-63.975,-63.975c-10.6,-10.6 -10.6,-27.784 -0,-38.384Z" style="fill:#533566;fill-rule:nonzero;"/><g><path d="M550.969,270.681c3.506,12.637 -0.059,26.182 -9.332,35.455c-28.463,28.465 -89.971,89.979 -118.257,118.267c-9.151,9.152 -22.475,12.755 -34.991,9.461c-39.079,-10.286 -124.584,-32.791 -163.663,-43.077c-12.516,-3.294 -22.34,-12.988 -25.8,-25.459c-10.695,-38.548 -33.951,-122.371 -44.713,-161.16c-3.505,-12.637 0.059,-26.182 9.331,-35.455c28.464,-28.465 89.971,-89.979 118.257,-118.267c9.151,-9.152 22.476,-12.754 34.991,-9.46c39.08,10.286 124.584,32.789 163.664,43.075c12.515,3.294 22.34,12.988 25.799,25.46c10.696,38.549 33.952,122.372 44.714,161.16Z" style="fill:#f4f4f4;fill-rule:nonzero;stroke:#ca0b4a;stroke-width:20px;"/><path d="M428.787,290.971l-56.35,-17.892l-3.045,3.044l37.122,37.121l-29.698,29.697l-118.788,-118.788l29.698,-29.698l37.121,37.122l3.245,-3.244l-18.093,-56.151l37.12,-37.121l27.493,91.297l91.296,27.492" style="fill:#ca0b4a;fill-rule:nonzero;"/></g><path d="M303.067,322.916c7.996,-21.725 -13.124,-42.845 -34.849,-34.849l-128.732,47.387c-12.395,4.564 -15.884,20.438 -6.545,29.777l92.962,92.963c9.339,9.338 25.214,5.85 29.777,-6.545l47.387,-128.733Z" style="fill:#f92f60;fill-rule:nonzero;"/></g></svg>