<svg width="160" height="160" viewBox="0 0 160 160" fill="none" xmlns="http://www.w3.org/2000/svg">
<g opacity="0.33" filter="url(#filter0_f_4_253)">
<path d="M128.743 79.5425C129.453 82.1008 128.731 84.8431 126.854 86.7204C121.092 92.4834 108.639 104.937 102.913 110.664C101.06 112.517 98.3624 113.246 95.8286 112.579C87.9169 110.497 70.6062 105.941 62.6945 103.858C60.1607 103.191 58.1717 101.229 57.4713 98.704C55.306 90.8998 50.5978 73.9296 48.4191 66.0768C47.7094 63.5184 48.431 60.7762 50.3082 58.8988C56.0706 53.136 68.5231 40.6824 74.2496 34.9553C76.1022 33.1025 78.7998 32.3733 81.3336 33.0401C89.2453 35.1226 106.556 39.6784 114.468 41.7608C117.001 42.4277 118.99 44.3904 119.691 46.9154C121.856 54.7195 126.564 71.6897 128.743 79.5425Z" fill="#CA0B4A"/>
<path d="M128.743 79.5425C129.453 82.1008 128.731 84.8431 126.854 86.7204C121.092 92.4834 108.639 104.937 102.913 110.664C101.06 112.517 98.3624 113.246 95.8286 112.579C87.9169 110.497 70.6062 105.941 62.6945 103.858C60.1607 103.191 58.1717 101.229 57.4713 98.704C55.306 90.8998 50.5978 73.9296 48.4191 66.0768C47.7094 63.5184 48.431 60.7762 50.3082 58.8988C56.0706 53.136 68.5231 40.6824 74.2496 34.9553C76.1022 33.1025 78.7998 32.3733 81.3336 33.0401C89.2453 35.1226 106.556 39.6784 114.468 41.7608C117.001 42.4277 118.99 44.3904 119.691 46.9154C121.856 54.7195 126.564 71.6897 128.743 79.5425Z" stroke="#CA0B4A" stroke-width="4.04837" stroke-miterlimit="2" stroke-linejoin="round"/>
</g>
<g opacity="0.3" filter="url(#filter1_f_4_253)">
<path d="M30.6233 130.008C28.0333 127.418 29.0737 109.453 38.2321 105.79C38.2321 105.79 47.3905 102.126 53.2922 107.991C59.1939 113.853 56.5489 120.443 56.5489 120.443C53.9589 128.213 42.9286 131.305 41.6354 130.008C40.921 129.294 42.2069 127.99 41.6354 127.418C41.0602 126.843 40.1774 127.499 37.7486 128.711C36.0231 129.576 31.66 131.045 30.6233 130.008Z" fill="#FF8257"/>
<path d="M43.947 98.6864C46.0937 96.5397 49.5739 96.5397 51.7206 98.6864L64.6706 111.636C66.8173 113.783 66.8173 117.263 64.6706 119.41C62.5275 121.553 59.0473 121.553 56.9006 119.41L43.947 106.456C41.8039 104.31 41.8039 100.833 43.947 98.6864Z" fill="#FF8257"/>
</g>
<path d="M126.785 34.9731C123.975 32.1632 118.774 32.0118 115.456 33.712C112.747 34.6437 109.896 35.6911 106.988 36.8661L107.018 36.8987C99.3772 40.1448 87.9477 45.9159 78.8 54.4079C72.3791 60.369 68.6998 64.9592 66.2341 69.1399L93.9088 94.0195C98.6799 91.177 103.472 87.5956 108.472 82.5959C115.563 75.5044 121.426 63.1343 124.83 54.8322L124.856 54.856C126.046 51.9185 127.105 49.0374 128.043 46.3017C129.743 42.9844 130.239 38.4268 126.785 34.9731Z" fill="#CA0B4A"/>
<path d="M116.291 67.7859L91.4388 42.9337C82.002 46.9414 80.6648 45.8497 69.3707 56.3342C61.4432 63.6939 64.4654 59.4408 46.6981 67.3646L27.2896 74.5082C24.7802 75.4314 24.0732 78.6478 25.9635 80.5381C39.5656 94.1365 67.4804 122.051 81.0825 135.653C82.9727 137.544 86.1855 136.837 87.1087 134.327L95.1827 112.398C101.073 108.889 99.8316 97.309 106.004 91.1362C114.76 82.3807 112.089 78.036 116.291 67.7859Z" fill="#CA0B4A"/>
<path d="M30.6233 130.008C28.0333 127.418 29.0737 109.453 38.2321 105.79C38.2321 105.79 47.3905 102.126 53.2922 107.991C59.1939 113.853 56.5489 120.443 56.5489 120.443C53.9589 128.213 42.9285 131.305 41.6354 130.008C40.921 129.294 42.2068 127.99 41.6354 127.418C41.0602 126.843 40.1773 127.499 37.7485 128.711C36.0231 129.576 31.66 131.045 30.6233 130.008Z" fill="#FF8257"/>
<path d="M43.947 98.6864C46.0937 96.5397 49.5739 96.5397 51.7206 98.6864L64.6706 111.636C66.8173 113.783 66.8173 117.263 64.6706 119.41C62.5275 121.553 59.0473 121.553 56.9006 119.41L43.947 106.456C41.8039 104.31 41.8039 100.833 43.947 98.6864Z" fill="#533566"/>
<path d="M128.743 79.5425C129.453 82.1008 128.731 84.8431 126.854 86.7204C121.092 92.4834 108.639 104.937 102.913 110.664C101.06 112.517 98.3624 113.246 95.8286 112.579C87.9169 110.497 70.6062 105.941 62.6945 103.858C60.1607 103.191 58.1717 101.229 57.4713 98.704C55.306 90.8998 50.5978 73.9296 48.4191 66.0768C47.7094 63.5184 48.431 60.7762 50.3082 58.8988C56.0706 53.136 68.5231 40.6824 74.2496 34.9553C76.1022 33.1025 78.7998 32.3733 81.3336 33.0401C89.2453 35.1226 106.556 39.6784 114.468 41.7608C117.001 42.4277 118.99 44.3904 119.691 46.9154C121.856 54.7195 126.564 71.6897 128.743 79.5425Z" fill="#F4F4F4" stroke="#CA0B4A" stroke-width="4.04837" stroke-miterlimit="2" stroke-linejoin="round"/>
<path d="M104.007 83.6502L92.5989 80.028L91.9825 80.6443L99.4979 88.1594L93.4855 94.1718L69.4366 70.1229L75.449 64.1105L82.9643 71.6259L83.6212 70.9692L79.9582 59.6013L87.4734 52.0859L93.0393 70.5693L111.522 76.1352" fill="#CA0B4A"/>
<path d="M78.5547 90.1178C80.1739 85.7181 75.8988 81.4429 71.4991 83.0621L45.4379 92.6565C42.9285 93.5797 42.2215 96.7924 44.1118 98.6864L62.9342 117.505C64.8245 119.395 68.0372 118.688 68.9604 116.179L78.5547 90.1178Z" fill="#F92F60"/>
<defs>
<filter id="filter0_f_4_253" x="21.1265" y="5.77316" width="134.909" height="134.073" filterUnits="userSpaceOnUse" color-interpolation-filters="sRGB">
<feFlood flood-opacity="0" result="BackgroundImageFix"/>
<feBlend mode="normal" in="SourceGraphic" in2="BackgroundImageFix" result="shape"/>
<feGaussianBlur stdDeviation="12.5" result="effect1_foregroundBlur_4_253"/>
</filter>
<filter id="filter1_f_4_253" x="4.39368" y="72.0764" width="86.887" height="83.2883" filterUnits="userSpaceOnUse" color-interpolation-filters="sRGB">
<feFlood flood-opacity="0" result="BackgroundImageFix"/>
<feBlend mode="normal" in="SourceGraphic" in2="BackgroundImageFix" result="shape"/>
<feGaussianBlur stdDeviation="12.5" result="effect1_foregroundBlur_4_253"/>
</filter>
</defs>
</svg>
